<?xml version="1.0" standalone="no"?>
<!DOCTYPE svg PUBLIC "-//W3C//DTD SVG 20010904//EN"
 "http://www.w3.org/TR/2001/REC-SVG-20010904/DTD/svg10.dtd">
<svg version="1.0" xmlns="http://www.w3.org/2000/svg"
 width="290.000000pt" height="174.000000pt" viewBox="0 0 290.000000 174.000000"
 preserveAspectRatio="xMidYMid meet">

<g transform="translate(0.000000,174.000000) scale(0.100000,-0.100000)"
fill="#000000" stroke="none">
<path d="M1236 1574 c-13 -13 -16 -46 -16 -210 0 -181 1 -195 20 -214 19 -19
33 -20 210 -20 244 0 230 -11 230 174 l0 135 -37 43 c-21 24 -55 58 -77 76
l-38 32 -138 0 c-113 0 -142 -3 -154 -16z m184 -64 c0 -18 -7 -20 -75 -20 -68
0 -75 2 -75 20 0 18 7 20 75 20 68 0 75 -2 75 -20z m0 -75 c0 -12 -15 -15 -75
-15 -60 0 -75 3 -75 15 0 12 15 15 75 15 60 0 75 -3 75 -15z m210 -70 c0 -13
-27 -15 -180 -15 -153 0 -180 2 -180 15 0 13 27 15 180 15 153 0 180 -2 180
-15z m0 -75 c0 -19 -7 -20 -180 -20 -173 0 -180 1 -180 20 0 19 7 20 180 20
173 0 180 -1 180 -20z m0 -70 c0 -19 -7 -20 -180 -20 -173 0 -180 1 -180 20 0
19 7 20 180 20 173 0 180 -1 180 -20z"/>
<path d="M924 1471 l15 -28 -78 -6 c-87 -6 -159 -32 -204 -75 -39 -37 -54 -68
-61 -127 l-6 -50 19 53 c34 97 107 149 244 172 38 7 71 10 74 6 3 -3 -2 -16
-10 -30 l-16 -24 77 25 c42 14 79 28 82 30 6 5 -16 18 -93 55 l-57 27 14 -28z"/>
<path d="M1869 1456 c-25 -7 -54 -19 -65 -25 -11 -8 -13 -11 -3 -8 8 3 49 10
91 17 74 12 133 7 198 -18 31 -12 77 -57 97 -95 17 -34 12 -43 -16 -27 -12 6
-21 9 -21 6 0 -2 19 -39 42 -82 l41 -77 24 84 c12 46 23 86 23 88 0 2 -11 -4
-25 -13 -30 -20 -35 -20 -35 -1 0 53 -70 131 -139 154 -44 14 -153 13 -212 -3z"/>
<path d="M2028 1089 c-16 -9 -18 -31 -18 -219 0 -197 1 -210 19 -220 12 -6 96
-10 203 -10 243 0 228 -11 228 171 0 91 -4 139 -11 139 -5 0 -8 3 -6 8 3 4
-23 7 -56 7 l-62 0 -5 65 -5 65 -135 2 c-80 2 -142 -2 -152 -8z m122 -244 l0
-135 -50 0 -50 0 0 135 0 135 50 0 50 0 0 -135z m260 -30 l0 -105 -50 0 -50 0
0 105 0 105 50 0 50 0 0 -105z m-130 -45 l0 -60 -50 0 -50 0 0 60 0 60 50 0
50 0 0 -60z"/>
<path d="M2380 1025 c13 -14 26 -25 28 -25 3 0 -5 11 -18 25 -13 14 -26 25
-28 25 -3 0 5 -11 18 -25z"/>
<path d="M1053 915 c-62 -27 -63 -34 -63 -449 0 -219 4 -385 10 -400 5 -14 24
-35 42 -46 31 -19 51 -20 408 -20 357 0 377 1 408 20 18 11 37 32 42 46 13 33
13 535 0 568 -5 14 -66 82 -134 150 -94 94 -134 127 -163 135 -59 17 -510 14
-550 -4z m237 -468 c34 -17 46 -56 29 -93 -11 -23 -23 -31 -62 -38 -46 -9 -47
-10 -47 -48 0 -39 0 -39 -37 -36 l-38 3 -3 99 c-1 55 0 106 2 113 7 17 122 17
156 0z m224 -1 c50 -21 69 -86 45 -156 -15 -41 -58 -60 -139 -60 l-60 0 0 115
0 115 60 0 c33 0 76 -6 94 -14z m256 -16 c0 -29 -1 -30 -50 -30 -38 0 -50 -4
-50 -15 0 -11 12 -15 45 -15 41 0 45 -2 45 -25 0 -23 -4 -25 -45 -25 l-45 0 0
-45 c0 -45 0 -45 -35 -45 l-35 0 0 115 0 115 85 0 85 0 0 -30z"/>
<path d="M1210 385 c0 -20 4 -26 18 -23 9 2 17 12 17 23 0 11 -8 21 -17 23
-14 3 -18 -3 -18 -23z"/>
<path d="M1430 345 c0 -56 0 -56 28 -53 25 3 27 6 27 53 0 47 -2 50 -27 53
-28 3 -28 3 -28 -53z"/>
<path d="M646 497 c-10 -40 -21 -79 -24 -87 -4 -11 1 -10 16 4 26 22 25 23 55
-35 38 -71 126 -107 192 -79 17 7 16 9 -10 9 -47 1 -96 18 -123 43 -44 42 -69
113 -27 78 9 -7 18 -10 21 -8 5 6 -63 135 -75 142 -4 3 -15 -28 -25 -67z"/>
<path d="M2261 512 c-2 -73 -49 -142 -113 -165 -21 -7 -22 -3 -8 24 6 10 7 19
3 19 -18 -1 -144 -78 -136 -83 4 -3 36 -12 70 -21 34 -9 70 -19 80 -23 17 -6
17 -5 1 14 -25 28 -23 37 16 51 75 27 116 104 98 185 l-10 42 -1 -43z"/>
</g>
</svg>
